#!OML:ASF F:\VICON\USERDATA\INSTALL\rory3\rory3.ASF
:FULLY-SPECIFIED
:DEGREES
396
root -4.43494 16.7701 -27.03 196.386 8.58765 -536.214
lowerback -6.99059 4.38094 10.9918
upperback -5.67351 5.96151 1.28987
thorax -1.15507 2.99067 -4.38354
lowerneck -14.9985 -2.99147 -7.62544
upperneck 25.6342 -4.67266 4.35796
head 11.0385 -2.80432 2.13299
rclavicle 3.31008e-014 -3.18055e-015
rhumerus -30.4332 42.7814 -112.579
rradius 41.1121
rwrist 18.7146
rhand -16.5092 -36.0826
rfingers 7.12502
rthumb 9.70885 -65.8389
lclavicle 3.31008e-014 -3.18055e-015
lhumerus -54.3669 -4.09083 84.3844
lradius 35.5727
lwrist 13.2792
lhand -26.6012 332.699
lfingers 7.12502
lthumb -0.0348949 2.67843
rfemur -12.9778 22.0735 31.7738
rtibia 37.3941
rfoot -17.4792 22.4992
rtoes 4.22933
lfemur -58.677 -2.89097 -15.3599
ltibia 52.5244
lfoot -12.9401 3.24571
ltoes -18.7823
397
root -4.40701 16.7847 -27.17 196.649 10.3965 -536.995
lowerback -6.28266 4.5456 9.5963
upperback -6.18789 6.37427 1.00196
thorax -2.11103 3.1745 -3.98118
lowerneck -15.2322 -3.01998 -7.3315
upperneck 26.1933 -4.76996 3.98723
head 11.2849 -2.89372 1.9272
rclavicle 2.42828e-014 6.83819e-014
rhumerus -31.3405 42.4873 -113.316
rradius 41.3778
rwrist 18.6391
rhand -16.5553 -36.2926
rfingers 7.12502
rthumb 9.66445 -66.0509
lclavicle 2.42828e-014 6.83819e-014
lhumerus -55.3867 -3.38854 84.2032
lradius 34.8039
lwrist 13.7199
lhand -27.3284 330.976
lfingers 7.12502
lthumb -0.737228 0.953973
rfemur -12.8177 23.0848 30.5624
rtibia 37.11
rfoot -17.8983 21.8484
rtoes -1.84289
lfemur -58.7621 -2.12933 -16.5535
ltibia 51.3466
lfoot -12.5976 2.70622
ltoes -19.978
398
root -4.41309 16.8176 -27.3567 197.085 10.8336 -536.016
lowerback -6.40837 4.64837 10.9213
upperback -6.43057 6.52343 1.09869
thorax -2.1866 3.22016 -4.59225
lowerneck -14.202 -2.65155 -7.47249
upperneck 25.6631 -4.43298 4.53419
head 10.8721 -2.70845 2.21003
rclavicle -2.98798e-015 -9.54166e-015
rhumerus -31.9505 42.0511 -113.703
rradius 41.6205
rwrist 18.5743
rhand -15.7673 -36.6086
rfingers 7.12502
rthumb 10.4246 -66.3302
lclavicle -2.98798e-015 -9.54166e-015
lhumerus -56.313 -2.49049 83.7339
lradius 34.1516
lwrist 12.7153
lhand -27.114 332.451
lfingers 7.12502
lthumb -0.530189 2.42994
rfemur -12.2778 22.6781 31.2278
rtibia 36.6751
rfoot -12.6585 25.5726
rtoes 15.2454
lfemur -58.9349 -1.83257 -15.8989
ltibia 50.3668
lfoot -12.0918 1.49723
ltoes -15.8437
399
root -4.38597 16.8605 -27.5875 197.694 12.2654 -536.004
lowerback -7.80353 5.04611 10.7054
upperback -6.2977 6.86192 0.934768
thorax -1.22236 3.44901 -4.46735
lowerneck -13.6287 -3.78002 -7.16836
upperneck 25.2405 -3.61181 4.56303
head 10.5743 -1.34995 2.45867
rclavicle -1.89342e-014 -6.36111e-015
rhumerus -31.9046 41.806 -113.673
rradius 41.9138
rwrist 18.1113
rhand -15.0269 -37.0182
rfingers 7.12502
rthumb 11.1388 -66.7025
lclavicle -1.89342e-014 -6.36111e-015
lhumerus -56.6162 -1.46094 82.9189
lradius 33.4069
lwrist 10.6571
lhand -27.7413 323.49
lfingers 7.12502
lthumb -1.13604 -6.53358
rfemur -12.2199 23.5535 30.6161
rtibia 36.5765
rfoot -7.37969 27.3814
rtoes 27.8986
lfemur -58.8825 -1.09461 -16.339
ltibia 49.3775
lfoot -11.7043 1.19513
ltoes -17.4418
400
root -4.35959 16.8828 -27.7282 197.985 13.3143 -535.912
lowerback -7.50565 5.1687 10.4615
upperback -6.39103 7.07054 0.819434
thorax -1.46016 3.53908 -4.46866
lowerneck -13.8167 -3.60302 -6.86955
upperneck 25.3083 -3.42413 4.52512
head 10.6144 -1.24153 2.41898
rclavicle -2.52177e-014 -5.56597e-015
rhumerus -31.8625 41.3216 -113.628
rradius 42.2463
rwrist 17.7467
rhand -15.1791 -36.928
rfingers 7.12502
rthumb 10.992 -66.6202
lclavicle -2.52177e-014 -5.56597e-015
lhumerus -56.8242 -0.76355 82.4499
lradius 31.7921
lwrist 9.55927
lhand -25.5628 339.096
lfingers 7.12502
lthumb 0.96801 9.07322
rfemur -11.9904 24.5756 30.43
rtibia 36.0861
rfoot -3.93344 27.3847
rtoes 30.286
lfemur -59.1037 -0.662982 -16.3673
ltibia 48.5746
lfoot -10.494 1.10204
ltoes -16.0455
401
root -4.35986 16.8999 -27.8918 198.173 13.9377 -536.004
lowerback -7.57176 5.24538 10.5987
upperback -6.40003 7.14028 0.604594
thorax -1.38195 3.56413 -4.75136
lowerneck -15.3755 -3.98504 -6.49709
upperneck 26.196 -3.92173 4.22135
head 11.2722 -1.45954 2.17716
rclavicle -3.24578e-014 -2.14687e-014
rhumerus -31.6473 40.6858 -113.316
rradius 42.4384
rwrist 17.4721
rhand -14.6743 -36.6153
rfingers 7.12502
rthumb 11.4789 -66.281
lclavicle -3.24578e-014 -2.14687e-014
lhumerus -56.9632 0.10282 81.749
lradius 31.1272
lwrist 10.1816
lhand -25.218 336.209
lfingers 7.12502
lthumb 1.30105 6.1846
rfemur -11.5198 24.0617 29.9983
rtibia 35.7696
rfoot -2.20767 28.2272
rtoes 29.4885
lfemur -58.9988 -0.511215 -16.9334
ltibia 47.9331
lfoot -9.57358 1.48786
ltoes -18.6377
402
root -4.35737 16.949 -28.1361 198.71 14.698 -535.301
lowerback -7.99577 5.47121 11.5339
upperback -6.88099 7.45997 0.585526
thorax -1.53054 3.70895 -5.2317
lowerneck -15.2647 -4.07976 -6.06029
upperneck 26.8233 -3.95003 3.6368
head 11.4681 -1.46949 1.89894
rclavicle 6.2232e-014 4.05521e-014
rhumerus -32.711 39.7043 -113.828
rradius 42.5894
rwrist 17.0531
rhand -13.9274 -36.5908
rfingers 7.12502
rthumb 12.1991 -66.2151
lclavicle 6.2232e-014 4.05521e-014
lhumerus -58.3807 0.666917 81.1393
lradius 30.581
lwrist 10.6179
lhand -25.7678 334.788
lfingers 7.12502
lthumb 0.769972 4.76627
rfemur -10.8751 23.2917 30.1766
rtibia 35.411
rfoot -1.64627 29.8501
rtoes 26.3859
lfemur -58.7335 -0.063796 -16.7706
ltibia 47.4339
lfoot -9.02257 1.94415
ltoes -17.891
403
root -4.328 16.9616 -28.3198 198.868 15.6353 -535.146
lowerback -8.18078 5.62355 11.4481
upperback -6.88631 7.634 0.509865
thorax -1.40258 3.80212 -5.22322
lowerneck -15.7262 -4.1667 -5.64188
upperneck 27.1972 -4.04135 3.19079
head 11.6887 -1.51792 1.64877
rclavicle -5.13113e-015 -3.81667e-014
rhumerus -32.8948 39.2134 -113.802
rradius 42.859
rwrist 16.2433
rhand -14.0157 -36.5616
rfingers 7.12502
rthumb 12.114 -66.1909
lclavicle -5.13113e-015 -3.81667e-014
lhumerus -58.7815 1.35998 80.4686
lradius 29.8088
lwrist 10.7692
lhand -26.4733 333.905
lfingers 7.12502
lthumb 0.088653 3.88452
rfemur -10.3188 23.9719 30.1122
rtibia 35.0326
rfoot 0.524473 29.9176
rtoes 26.7769
lfemur -58.5839 0.632105 -17.0826
ltibia 47.2123
lfoot -8.38729 2.16445
ltoes -19.0419
404
root -4.28439 16.9248 -28.4596 198.509 16.8013 -535.913
lowerback -7.59012 5.64393 10.0562
upperback -6.94658 7.76772 0.261505
thorax -1.86819 3.86537 -4.78417
lowerneck -15.3118 -4.07142 -5.97273
upperneck 26.7721 -4.09254 4.02164
head 11.471 -1.4833 2.00335
rclavicle 6.62574e-014 -5.56597e-015
rhumerus -33.0895 38.6087 -113.738
rradius 43.2306
rwrist 15.0745
rhand -14.3461 -36.5331
rfingers 7.12502
rthumb 11.7954 -66.181
lclavicle 6.62574e-014 -5.56597e-015
lhumerus -59.0493 2.03337 79.6697
lradius 29.029
lwrist 10.6659
lhand -26.4484 334.342
lfingers 7.12502
lthumb 0.11265 4.32158
rfemur -9.48214 24.3252 29.4754
rtibia 34.8141
rfoot 0.110419 29.6791
rtoes 22.8138
lfemur -58.0135 1.38131 -18.4123
ltibia 47.0269
lfoot -8.03932 2.72385
ltoes -20.7948
405
root -4.24807 16.9126 -28.7054 199.034 17.4019 -535.295
lowerback -8.68549 5.91504 10.5857
upperback -7.05833 8.0199 0.26272
thorax -1.29993 4.02195 -4.92329
lowerneck -15.2743 -3.82534 -5.68499
upperneck 27.1803 -3.7701 4.02567
head 11.5935 -1.2826 2.01489
rclavicle -4.26145e-014 1.59028e-014
rhumerus -33.6772 37.7031 -113.801
rradius 43.5333
rwrist 14.1076
rhand -14.3739 -36.8707
rfingers 7.12502
rthumb 11.7686 -66.5201
lclavicle -4.26145e-014 1.59028e-014
lhumerus -59.707 2.40874 78.9453
lradius 28.3576
lwrist 10.6551
lhand -25.9083 335.267
lfingers 7.12502
lthumb 0.634296 5.24607
rfemur -8.85864 24.132 29.8485
rtibia 34.7041
rfoot 0.759812 30.3426
rtoes 20.3851
lfemur -57.8377 2.2828 -18.5403
ltibia 47.1361
lfoot -8.13636 2.9685
ltoes -19.0047
406
root -4.20545 16.932 -28.9142 199.148 18.1754 -535.228
lowerback -9.56438 6.17772 10.4193
upperback -6.67984 8.19752 0.18953
thorax -0.393822 4.15388 -4.75213
lowerneck -16.0889 -3.98086 -5.61448
upperneck 27.2615 -4.04617 4.06841
head 11.8046 -1.40802 1.96778
rclavicle 8.44835e-015 6.36111e-015
rhumerus -33.238 36.6569 -112.926
rradius 44.013
rwrist 13.5998
rhand -13.9579 -37.2118
rfingers 7.12502
rthumb 12.1697 -66.8379
lclavicle 8.44835e-015 6.36111e-015
lhumerus -59.3724 3.07741 78.2327
lradius 27.4504
lwrist 10.4107
lhand -26.2305 335.732
lfingers 7.12502
lthumb 0.323127 5.71189
rfemur -8.57959 24.7625 29.6537
rtibia 34.6558
rfoot 4.99263 30.361
rtoes 24.2404
lfemur -57.3641 3.12073 -19.1419
ltibia 47.2133
lfoot -7.95014 3.17271
ltoes -15.4678
407
root -4.16493 16.8982 -29.0851 198.973 19.0285 -535.765
lowerback -8.68083 6.11095 9.33407
upperback -7.32831 8.37846 0.00104865
thorax -1.63418 4.21794 -4.49919
lowerneck -15.6671 -3.89054 -5.31775
upperneck 27.6785 -3.90221 3.92456
head 11.8623 -1.29797 1.90213
rclavicle 3.89121e-014 -1.31198e-014
rhumerus -34.4127 33.9608 -112.819
rradius 44.8948
rwrist 14.0286
rhand -13.2178 -37.4006
rfingers 7.12502
rthumb 12.8832 -66.9829
lclavicle 3.89121e-014 -1.31198e-014
lhumerus -60.3567 3.52511 77.1442
lradius 26.5817
lwrist 10.0974
lhand -26.3457 334.739
lfingers 7.12502
lthumb 0.21186 4.71904
rfemur -7.69327 24.826 29.0171
rtibia 34.4296
rfoot 4.8738 30.969
rtoes 20.115
lfemur -57.0534 3.86244 -20.3692
ltibia 47.6253
lfoot -7.94564 3.63856
ltoes -10.9891
